<?xml version="1.0" encoding="utf-8"?>
<!-- Generator: Adobe Illustrator 22.1.0, SVG Export Plug-In . SVG Version: 6.00 Build 0)  -->
<svg version="1.1" id="Capa_1" xmlns="http://www.w3.org/2000/svg" xmlns:xlink="http://www.w3.org/1999/xlink" x="0px" y="0px"
	 viewBox="0 0 55 55" style="enable-background:new 0 0 55 55;" xml:space="preserve">
<style type="text/css">
	.st0{fill:#757575;}
</style>
<g>
	<path class="st0" d="M51.4,45.3c-4.7-4.6-7-10.1-7-16.3v-9c0-6.9-4.6-11.4-8.5-13.2c-1.1-0.5-2.3-0.9-3.5-1.2V5c0-2.8-2.2-5-5-5
		s-5,2.2-5,5v0.7c-1.1,0.3-2.1,0.7-3.1,1.1c-4.4,2-8.8,6.9-8.9,13.2v9c0,6.4-2.3,11.9-6.7,16.3c-0.3,0.3-0.4,0.7-0.2,1
		s0.4,0.6,0.8,0.7l9.5,1.6c1.8,0.3,3.4,0.6,4.9,0.8c1.7,3.4,5.2,5.6,8.9,5.6c3.7,0,7.2-2.2,8.9-5.6c1.5-0.2,3.2-0.5,4.9-0.8l9.5-1.6
		c0.4-0.1,0.7-0.3,0.8-0.7C51.7,45.9,51.6,45.6,51.4,45.3z M24.3,5c0-1.7,1.3-3,3-3s3,1.3,3,3v0.2c-2-0.3-4-0.3-6,0V5z M27.5,53
		c-2.5,0-4.9-1.3-6.4-3.3c2.2,0.2,4.3,0.3,6.4,0.3c2.1,0,4.2-0.1,6.4-0.3C32.4,51.7,30,53,27.5,53z M41,46.7
		c-1.9,0.3-3.7,0.6-5.3,0.8c0,0,0,0,0,0c-0.7,0.1-1.4,0.2-2.1,0.2c0,0,0,0,0,0c-0.6,0.1-1.3,0.1-1.9,0.2c-0.1,0-0.2,0-0.4,0
		c-0.5,0-1.1,0.1-1.6,0.1c-0.1,0-0.2,0-0.3,0c-1.2,0-2.5,0-3.7,0c-0.1,0-0.2,0-0.3,0c-0.5,0-1,0-1.6-0.1c-0.1,0-0.2,0-0.4,0
		c-0.6,0-1.2-0.1-1.8-0.2c0,0,0,0-0.1,0c-0.7-0.1-1.4-0.2-2.1-0.2c0,0,0,0,0,0c-1.7-0.2-3.4-0.5-5.4-0.8l-7.7-1.3c4-4.6,6-10,6-16.3
		v-9c0-5.4,3.9-9.6,7.7-11.4c1.1-0.5,2.3-0.9,3.5-1.2c0,0,0,0,0,0c2.5-0.6,5.1-0.6,7.6-0.1c0,0,0,0,0,0C32.5,7.6,33.8,8,35,8.6
		c3.7,1.7,7.4,5.9,7.4,11.4v9c0,6,2.2,11.6,6.3,16.3L41,46.7z"/>
	<path class="st0" d="M33.7,11.3c-3.9-1.8-8.6-1.8-12.5,0c-2.2,1-5.9,4-5.9,8.7c0,0.6,0.4,1,1,1c0,0,0,0,0,0c0.5,0,1-0.4,1-1
		c0-3.7,3-6,4.8-6.9c3.3-1.5,7.4-1.5,10.8,0c0.5,0.2,1.1,0,1.3-0.5C34.5,12.2,34.2,11.6,33.7,11.3z"/>
</g>
</svg>
