<?xml version="1.0" encoding="utf-8"?>
<!-- Generator: Adobe Illustrator 22.1.0, SVG Export Plug-In . SVG Version: 6.00 Build 0)  -->
<svg version="1.1" id="Capa_1" xmlns="http://www.w3.org/2000/svg" xmlns:xlink="http://www.w3.org/1999/xlink" x="0px" y="0px"
	 viewBox="0 0 60 60" style="enable-background:new 0 0 60 60;" xml:space="preserve">
<style type="text/css">
	.st0{fill:#757575;}
</style>
<g>
	<path class="st0" d="M8,22c-4.4,0-8,3.6-8,8s3.6,8,8,8s8-3.6,8-8S12.4,22,8,22z M8,36c-3.3,0-6-2.7-6-6s2.7-6,6-6s6,2.7,6,6
		S11.3,36,8,36z"/>
	<path class="st0" d="M52,22c-4.4,0-8,3.6-8,8s3.6,8,8,8s8-3.6,8-8S56.4,22,52,22z M52,36c-3.3,0-6-2.7-6-6s2.7-6,6-6s6,2.7,6,6
		S55.3,36,52,36z"/>
	<path class="st0" d="M30,22c-4.4,0-8,3.6-8,8s3.6,8,8,8s8-3.6,8-8S34.4,22,30,22z M30,36c-3.3,0-6-2.7-6-6s2.7-6,6-6s6,2.7,6,6
		S33.3,36,30,36z"/>
</g>
</svg>
